<svg width="17" height="16" viewBox="0 0 17 16" fill="none" xmlns="http://www.w3.org/2000/svg">
<mask id="path-1-inside-1_12_1290" fill="white">
<path d="M7.54894 0.927052C7.8483 0.0057416 9.1517 0.00573945 9.45106 0.92705L10.6329 4.56434C10.7668 4.97636 11.1507 5.25532 11.5839 5.25532H15.4084C16.3771 5.25532 16.7799 6.49494 15.9962 7.06434L12.9021 9.31231C12.5516 9.56695 12.405 10.0183 12.5389 10.4303L13.7207 14.0676C14.02 14.9889 12.9656 15.7551 12.1818 15.1857L9.08779 12.9377C8.7373 12.6831 8.2627 12.6831 7.91222 12.9377L4.81815 15.1857C4.03444 15.7551 2.97996 14.9889 3.27931 14.0676L4.46114 10.4303C4.59501 10.0183 4.44835 9.56695 4.09787 9.31231L1.00381 7.06434C0.220092 6.49494 0.622867 5.25532 1.59159 5.25532H5.41606C5.84929 5.25532 6.23324 4.97636 6.36712 4.56434L7.54894 0.927052Z"/>
</mask>
<path d="M6.36712 4.56434L5.41606 4.25532L6.36712 4.56434ZM1.00381 7.06434L1.59159 6.25532L1.00381 7.06434ZM4.09787 9.31231L3.51008 10.1213L4.09787 9.31231ZM4.81815 15.1857L4.23037 14.3766L4.81815 15.1857ZM3.27931 14.0676L2.32825 13.7586L3.27931 14.0676ZM9.08779 12.9377L9.67557 12.1287L9.08779 12.9377ZM7.91222 12.9377L7.32443 12.1287L7.91222 12.9377ZM12.1818 15.1857L12.7696 14.3766L12.1818 15.1857ZM12.5389 10.4303L11.5878 10.7394L12.5389 10.4303ZM15.9962 7.06434L15.4084 6.25532L15.9962 7.06434ZM10.6329 4.56434L11.5839 4.25532L10.6329 4.56434ZM7.54894 0.927052L6.59789 0.618035L7.54894 0.927052ZM8.5 1.23607L9.68183 4.87335L11.5839 4.25532L10.4021 0.618033L8.5 1.23607ZM11.5839 6.25532H15.4084V4.25532H11.5839V6.25532ZM15.4084 6.25532L12.3143 8.50329L13.4899 10.1213L16.584 7.87335L15.4084 6.25532ZM11.5878 10.7394L12.7696 14.3766L14.6717 13.7586L13.4899 10.1213L11.5878 10.7394ZM12.7696 14.3766L9.67557 12.1287L8.5 13.7467L11.5941 15.9947L12.7696 14.3766ZM7.32443 12.1287L4.23037 14.3766L5.40594 15.9947L8.5 13.7467L7.32443 12.1287ZM4.23037 14.3766L5.41219 10.7394L3.51008 10.1213L2.32825 13.7586L4.23037 14.3766ZM4.68565 8.50329L1.59159 6.25532L0.416021 7.87336L3.51008 10.1213L4.68565 8.50329ZM1.59159 6.25532H5.41606V4.25532H1.59159V6.25532ZM7.31817 4.87336L8.5 1.23607L6.59789 0.618035L5.41606 4.25532L7.31817 4.87336ZM5.41606 6.25532C6.28251 6.25532 7.05042 5.6974 7.31817 4.87336L5.41606 4.25532H5.41606V6.25532ZM1.59159 6.25532L1.59159 6.25532V4.25532C-0.345859 4.25532 -1.1514 6.73456 0.416021 7.87336L1.59159 6.25532ZM5.41219 10.7394C5.67994 9.91531 5.38663 9.01258 4.68565 8.50329L3.51008 10.1213V10.1213L5.41219 10.7394ZM4.23037 14.3766H4.23037L2.32825 13.7586C1.72955 15.6012 3.83852 17.1335 5.40594 15.9947L4.23037 14.3766ZM9.67557 12.1287C8.9746 11.6194 8.0254 11.6194 7.32443 12.1287L8.5 13.7467L9.67557 12.1287ZM12.7696 14.3766H12.7696L11.5941 15.9947C13.1615 17.1335 15.2704 15.6012 14.6717 13.7586L12.7696 14.3766ZM12.3143 8.50329C11.6134 9.01258 11.3201 9.91531 11.5878 10.7394L13.4899 10.1213L12.3143 8.50329ZM15.4084 6.25532H15.4084L16.584 7.87335C18.1514 6.73455 17.3458 4.25532 15.4084 4.25532V6.25532ZM9.68183 4.87335C9.94957 5.6974 10.7175 6.25532 11.5839 6.25532V4.25532V4.25532L9.68183 4.87335ZM10.4021 0.618033C9.80341 -1.22459 7.19659 -1.22458 6.59789 0.618035L8.5 1.23607L8.5 1.23607L10.4021 0.618033Z" fill="#BF2619" mask="url(#path-1-inside-1_12_1290)"/>
</svg>
